<svg width="24" height="24" viewBox="0 0 24 24" fill="none" xmlns="http://www.w3.org/2000/svg">
  <path d="M17.06 11.57C17.65 10.71 17.84 9.77 17.42 8.71C16.88 7.36 15.14 6.86 13.15 7.3L12.39 4.72L11.32 5L12.07 7.5C11.81 7.57 11.55 7.65 11.27 7.73L10.53 5.24L9.47 5.52L10.23 8.1C10.01 8.17 9.77 8.25 9.53 8.32L8.1 8.73L8.37 9.93C8.37 9.93 9.15 9.72 9.14 9.73C9.64 9.59 9.74 9.92 9.83 10.14L11.41 15.67C11.43 15.83 11.36 16.06 11.03 16.15C11.04 16.16 10.26 16.37 10.26 16.37L10.41 17.66L11.75 17.27C11.99 17.21 12.23 17.15 12.46 17.08L13.24 19.72L14.3 19.44L13.53 16.84C13.8 16.77 14.07 16.7 14.33 16.62L15.1 19.21L16.17 18.93L15.39 16.3C16.9 15.95 18.08 15.15 18.45 13.7C18.74 12.53 18.38 11.77 17.57 11.28C17.8 11.18 17.96 11.09 18.06 11.01L17.06 11.57ZM15.09 13.2C14.84 14.37 13.23 14.7 12.03 14.85C11.94 14.86 11.86 14.87 11.77 14.89L10.5 10.47C10.59 10.45 10.68 10.43 10.77 10.41C11.97 10.16 13.63 9.96 13.88 11.14C14.01 11.8 13.8 12.67 13.09 13.2H15.09ZM13.96 8.25C14.18 9.27 12.95 9.81 11.93 10.02C11.85 10.04 11.77 10.05 11.7 10.07L10.57 6.15C10.65 6.13 10.72 6.12 10.8 6.1C11.82 5.96 13.07 5.68 13.29 6.7C13.43 7.35 13.24 8.04 12.96 8.25H13.96Z" fill="#F7931A"/>
</svg>

