<svg width="24" height="24" viewBox="0 0 24 24" fill="none" xmlns="http://www.w3.org/2000/svg">
  <path d="M19.2 7.312C19.2 5.376 17.664 3.84 15.728 3.84H10.432C10.016 3.84 9.664 4.128 9.6 4.544L7.808 15.488C7.744 15.808 8 16.096 8.32 16.096H10.752C11.168 16.096 11.52 15.808 11.584 15.392L12.032 12.8C12.096 12.384 12.448 12.096 12.864 12.096H14.128C16.832 12.096 18.88 10.304 19.2 7.664C19.2 7.536 19.2 7.44 19.2 7.312ZM17.28 7.664C17.088 9.28 15.792 10.368 14.128 10.368H12.864C12.448 10.368 12.096 10.656 12.032 11.072L11.584 13.664C11.584 13.728 11.52 13.792 11.52 13.856C11.456 13.92 11.392 13.984 11.328 13.984H8.896C8.832 13.984 8.768 13.92 8.768 13.856C8.768 13.856 8.768 13.792 8.768 13.792L10.56 2.848C10.56 2.784 10.624 2.72 10.624 2.656C10.688 2.592 10.752 2.528 10.816 2.528H15.728C16.896 2.528 17.856 3.424 17.856 4.544C17.856 5.664 17.664 6.72 17.28 7.664Z" fill="#003087"/>
  <path d="M8.32 16.096H10.752C11.168 16.096 11.52 15.808 11.584 15.392L12.032 12.8C12.096 12.384 12.448 12.096 12.864 12.096H14.128C16.832 12.096 18.88 10.304 19.2 7.664C19.264 7.024 19.2 6.464 19.008 5.952C18.752 5.376 18.304 4.928 17.728 4.608C17.856 5.184 17.856 5.824 17.728 6.528C17.408 9.152 15.36 10.944 12.672 10.944H11.392C10.976 10.944 10.624 11.232 10.56 11.648L10.112 14.24C10.048 14.56 10.304 14.848 10.624 14.848H12.608L12.224 17.12C12.16 17.44 12.416 17.728 12.736 17.728H14.72L14.336 20C14.272 20.32 14.528 20.608 14.848 20.608H16.832L16.448 22.88C16.384 23.2 16.64 23.488 16.96 23.488H18.944L17.152 21.696L8.32 16.096Z" fill="#0070E0"/>
</svg>

