<svg width="24" height="24" viewBox="0 0 24 24" fill="none" xmlns="http://www.w3.org/2000/svg">
  <path d="M10.82 12.49C10.26 12.05 9.5 12.05 8.94 12.49L6.69 14.29C5.94 14.9 5.94 16.05 6.69 16.67L8.94 18.47C9.5 18.91 10.26 18.91 10.82 18.47L13.07 16.67C13.82 16.05 13.82 14.9 13.07 14.29L10.82 12.49Z" fill="#673AB7"/>
  <path d="M16.71 11.29C17.33 10.67 17.33 9.67 16.71 9.05L13.07 5.33C12.45 4.71 11.45 4.71 10.83 5.33L7.19 9.05C6.57 9.67 6.57 10.67 7.19 11.29C7.81 11.91 8.81 11.91 9.43 11.29L12 8.66L14.57 11.29C15.19 11.91 16.19 11.91 16.81 11.29H16.71Z" fill="#673AB7"/>
  <path d="M14.57 19.38L12 22L9.43 19.38C8.81 18.76 7.81 18.76 7.19 19.38C6.57 20 6.57 21 7.19 21.62L10.83 25.33C11.45 25.95 12.45 25.95 13.07 25.33L16.71 21.62C17.33 21 17.33 20 16.71 19.38C16.09 18.76 15.09 18.76 14.47 19.38H14.57Z" fill="#673AB7"/>
</svg>

